<?xml version="1.0" encoding="utf-8"?>
<svg viewBox="0 0 1230 1230" width="1230" height="1230" xmlns="http://www.w3.org/2000/svg">
  <path id="Selección #1" stroke="black" stroke-width="1" d="M 345 295 C 345 295 380 276.14 380 276.14 C 399.01 266.33 418.05 256.09 438 248.25 C 452.23 242.66 475.58 236.66 487 228.1 C 494.94 222.14 509.58 206.21 515.75 197.99 C 515.75 197.99 548 162 548 162 C 554.91 155.09 565.68 144.15 574 139.58 C 585.09 133.49 604.33 129.15 617 129 C 637.48 128.77 656.55 139.72 670.96 153.65 C 670.96 153.65 685.09 169 685.09 169 C 685.09 169 739.38 231.46 748 235.88 C 756.21 240.08 765.32 241.99 774 244.94 C 774 244.94 791 251.4 791 251.4 C 811.28 259.66 830.11 270.5 849 281.44 C 856.45 285.75 877.19 297.34 882 303.14 C 876.54 304.55 873.48 304.05 868 303.14 C 864.82 302.82 861.03 302.43 858 301.39 C 851.49 299.16 837.99 288.91 832 284.48 C 822.34 277.33 820.06 277.67 811 272.69 C 811 272.69 801 266.31 801 266.31 C 801 266.31 786 258.45 786 258.45 C 777.48 253.95 766.7 247.48 757 247 C 758.94 254.94 765.62 261.15 771 267 C 776.38 272.85 790.86 290.48 794.94 297 C 796.27 299.14 801.01 306.97 801.44 308.96 C 802.49 313.82 796.76 315.9 793 316.78 C 785.97 318.44 768.08 320.91 761 321 C 758.08 321.03 753.61 321.3 751.04 319.98 C 748.56 318.71 744.61 313.93 742.48 311.68 C 742.48 311.68 727 296 727 296 C 727 296 649.99 216.91 649.99 216.91 C 643.18 210.55 630.45 197.63 623 193.44 C 619.17 191.29 614.49 188.86 610 189.8 C 599.44 192.02 582.21 208.48 574 215.72 C 574 215.72 497.58 287.74 497.58 287.74 C 497.58 287.74 473 309.42 473 309.42 C 468.08 313.24 464.52 316.62 458 316.96 C 451.98 317.27 449.5 315.92 444 314.18 C 439.89 312.87 426.9 310.52 425.15 306.73 C 423.25 302.6 432.4 293.35 434.96 290.18 C 434.96 290.18 469.18 249.39 469.99 247.02 C 471.64 242.15 466.13 242.06 463 242.88 C 454.77 245.03 447.52 248.71 440 252.5 C 440 252.5 405 272.01 405 272.01 C 405 272.01 374 291.87 374 291.87 C 367.45 295.06 351.45 298.55 345 295 Z M 29 291 C 35.46 289.43 42.38 290 49 290 C 49 290 168 292 168 292 C 168 292 213 294 213 294 C 213 294 300.25 299.5 352 309.37 C 403.75 319.24 494.43 345.85 519 355.46 C 551.11 368.03 580.92 384.93 610 403.31 C 610 403.31 656.33 434.67 674.25 451 C 692.18 467.33 694.18 471.96 701.87 484.17 C 713.25 502.24 727.58 538.94 731.63 560 C 731.63 560 734.04 580 734.04 580 C 734.04 580 738 612 738 612 C 738 612 738 634 738 634 C 737.99 642.61 735.68 656 735.68 656 C 735.68 656 730.23 681 730.23 681 C 720.77 721.29 706.64 760.79 688.51 798 C 688.51 798 658 861 658 861 C 655.06 866.97 649.01 882.78 644 886 C 644 886 638.97 871.53 637.45 868.87 C 637.45 868.87 621.74 832.09 621.74 832.09 C 618.8 826.07 612.36 818.09 612.42 811 C 612.45 807.01 620.53 792.43 622.73 788 C 627.59 778.22 637.34 755.23 640.26 745 C 649.67 711.97 661.54 673.9 665.9 640 C 665.9 640 671.5 605.5 670.5 592 C 669.5 578.5 665.82 560.22 663.29 553 C 656.72 534.28 645.12 520.68 632.33 506.09 C 632.33 506.09 604 477.09 604 477.09 C 604 477.09 586 462.77 586 462.77 C 557.85 441.45 522.65 422.57 490 409.06 C 490 409.06 462 398.39 462 398.39 C 462 398.39 413.67 375.33 346 359.26 C 278.33 343.18 235.52 335.02 206 330.87 C 206 330.87 80 313 80 313 C 74.52 312.94 58.73 310.68 60.7 320 C 61.43 323.45 83.31 361 83.31 361 C 86.19 365.78 89.81 369.84 92 375 C 82.07 370.55 79.76 364.98 73 357 C 61.32 343.21 50.48 328.2 40.69 313 C 36.91 307.12 30.25 297.58 29 291 Z M 1129 400 C 1132.64 390.07 1149.92 361.36 1156.35 352 C 1159.12 347.95 1166.94 339.43 1163.96 334.22 C 1160.17 327.6 1145 330.83 1139 332.12 C 1122 335.76 1085.99 338.02 1067 339.83 C 1067 339.83 1029 344 1029 344 C 1029 344 994 347.7 994 347.7 C 994 347.7 961 352 961 352 C 961 352 918 357.7 918 357.7 C 878.9 363.46 832.48 370.04 795 381.86 C 795 381.86 755 398.67 755 398.67 C 755 398.67 743 403.22 743 403.22 C 743 403.22 699 422.15 699 422.15 C 693.22 424.65 680.85 431.54 675 430.69 C 669.41 429.87 637.07 401.82 637.07 401.82 C 635.07 399.74 632.94 397.14 633.84 394.05 C 634.85 390.6 639.1 389.2 642 387.73 C 642 387.73 665 376.4 665 376.4 C 697.12 363.41 729.45 352.08 763 343.42 C 763 343.42 788 336.51 788 336.51 C 788 336.51 831 327.77 831 327.77 C 831 327.77 848 323.42 848 323.42 C 848 323.42 881 318.83 881 318.83 C 890.59 317.89 887.87 317.14 900 317 C 900 317 922 315 922 315 C 922 315 984 311 984 311 C 984 311 1199 309 1199 309 C 1199 309 1148.33 376.32 1148.33 376.32 C 1142.88 383.18 1136.5 396.37 1129 400 Z M 202 720 C 193.25 715.33 160.22 678.69 156.55 673.09 C 156.55 673.09 148.54 663.08 147.37 657 C 146.48 652.34 153 621.75 153 621.75 C 153 621.75 159.5 575 159.5 575 C 162.99 559.56 168.15 544.86 173.46 530 C 186.11 494.58 197.67 469.52 218.67 438 C 218.67 438 232.15 418 232.15 418 C 232.15 418 252.27 392 252.27 392 C 263.2 377.28 270.52 363.45 291 363 C 289.27 368.89 284.11 372.98 280.67 378.01 C 280.67 378.01 257.72 412 257.72 412 C 257.72 412 230.08 463 230.08 463 C 230.08 463 222.01 483 222.01 483 C 214.17 503.25 206.96 536.27 204.29 558 C 204.29 558 202.25 587.25 200 604 C 197.75 620.75 198.75 666.75 198 675 C 197.25 683.25 202 720 202 720 Z M 933.64 372.91 C 936.48 372.96 942.39 372.15 945.04 373.08 C 952.76 375.81 961.86 388.52 966.77 395 C 985.48 419.69 993.93 430.15 1009 458 C 1017.18 473.11 1037.42 513.88 1042.95 529 C 1049.29 546.36 1053.73 567.81 1057.37 586 C 1057.37 586 1063 617 1063 617 C 1063 617 1065 645 1065 645 C 1065 645 1067 671 1067 671 C 1066.98 681.91 1062.87 684.78 1056.2 693 C 1047.62 703.57 1037.35 712.64 1027 721.42 C 1021.99 725.68 1015.48 731.65 1010 735 C 1013.91 714.2 1014 649 1014 649 C 1014 649 1014 569 1014 569 C 1013.99 562.02 1010.86 542.29 1009.34 535 C 1009.34 535 998.1 491 998.1 491 C 998.1 491 990 468.04 990 468.04 C 990 468.04 982.28 450.3 981.41 448.09 C 979.44 443.08 970.33 422.67 962.33 409.33 C 954.33 396 934.53 375.15 933.64 372.91 Z M 217 563 C 217 563 217 555 217 555 C 217.02 540.29 223.97 517.81 229.4 504 C 232.21 496.85 234.36 489.28 238.93 483 C 247.44 471.31 258.47 462.6 270 454.12 C 288.94 440.17 355 400.11 355 400.11 C 360.55 396.09 369.33 388.58 376 387.34 C 381.73 386.27 390.59 388.97 396 391 C 396 391 396 393 396 393 C 396 393 238.32 548.82 238.32 548.82 C 232.04 555.44 226.74 562.69 217 563 Z M 827 397 C 829.95 394.45 844.38 387.67 848 387.88 C 851.66 388.1 861.52 395.36 865 397.67 C 865 397.67 899 418.33 899 418.33 C 921.96 433.61 940.4 446.29 960.29 465.87 C 966.87 472.35 973.64 478.13 978.76 486 C 988.27 500.61 992.27 518.1 995.46 535 C 996.82 542.2 998.99 552.93 999 560 C 999 560 999 573 999 573 C 985.64 566 898 472 898 472 C 894.61 468.61 859.45 431.09 859.45 431.09 C 852.63 423.23 833.27 404.36 827 397 Z M 786 888 C 784.41 896.76 776.95 910.08 772.42 918 C 772.42 918 727.05 1000 727.05 1000 C 724.38 1004.45 721.65 1009.98 717.56 1013.27 C 710.79 1018.71 693.74 1021.54 685 1023.08 C 685 1023.08 654 1027.29 654 1027.29 C 649.5 1027.87 643.57 1029.85 639.72 1026.19 C 637.7 1024.27 627.92 1013.99 624.45 1009.96 C 619.38 1004.07 605.05 980.56 602.18 975 C 602.18 975 567.38 903 567.38 903 C 567.38 903 548.38 861 548.38 861 C 548.38 861 528.02 815 528.02 815 C 525.97 809.85 517.26 788 517.26 788 C 517.26 788 508 761 508 761 C 508 761 501.36 740 501.36 740 C 501.36 740 489.48 704 489.48 704 C 489.48 704 484.37 690 484.37 690 C 481.52 676.5 480.02 658.82 480 645 C 480 645 479 627 479 627 C 479 627 480 592 480 592 C 480.01 583.73 483.58 563.12 485.91 555 C 485.91 555 495.58 531 495.58 531 C 499.6 520.43 508.52 498.77 514.67 490.04 C 514.67 490.04 523.92 479 523.92 479 C 528.67 473.34 540.82 459.66 548 458.28 C 553.32 457.25 558.7 460.25 563 463.01 C 571.83 468.68 578.08 473.37 586 480.28 C 588.35 482.34 595.1 488.19 595.84 491.04 C 596.89 495.07 591.54 499.44 589 502 C 578.5 512.57 577.53 515.09 569.82 527 C 561.67 539.59 552.93 555.54 548.73 570 C 546.16 578.82 544.09 614 544.09 614 C 544.09 614 544.09 630 544.09 630 C 544.09 630 546.07 653 546.07 653 C 546.07 653 556.58 699 556.58 699 C 556.58 699 561.95 714 561.95 714 C 561.95 714 569.66 737 569.66 737 C 569.66 737 585.86 789 585.86 789 C 585.86 789 606.79 839 606.79 839 C 606.79 839 656.01 954.67 666.84 969 C 677.67 983.33 681.5 990.74 684.03 991.4 C 695.25 993.5 772.72 902.54 772.72 902.54 C 777.52 897.95 780.76 892.09 786 888 Z M 152 552 C 153.31 556.7 148.73 572.49 147.37 578 C 147.37 578 136.09 629.54 136 637 C 135.88 647.72 133.01 659.87 136.99 670 C 139.5 676.41 142.03 678.9 146.25 683.5 C 146.25 683.5 347.9 894.61 347.9 894.61 C 347.9 894.61 418.17 969 418.17 969 C 418.17 969 441 995 441 995 C 423.67 989.82 409.62 977.64 395 967.44 C 395 967.44 387 962.41 387 962.41 C 387 962.41 351 935.99 351 935.99 C 351 935.99 328 916.3 328 916.3 C 328 916.3 112 740.28 112 740.28 C 112 740.28 96.31 725.99 96.31 725.99 C 93.81 722.75 87.35 711 87.35 711 C 85.91 708.58 81.38 699.5 80.63 697 C 80.63 697 74.35 679 74.35 679 C 73.52 675.76 72.12 668.2 72.26 665 C 72.26 665 72.26 654 72.26 654 C 72.69 644.94 76.06 632.99 80.32 625 C 85.08 616.07 140.54 559.74 152 552 Z M 991.72 777.57 C 991.72 777.57 1001.51 767 1001.51 767 C 1001.51 767 1036.96 732.92 1036.96 732.92 C 1036.96 732.92 1073.36 695.54 1076.87 688 C 1080.02 681.22 1081.08 667.58 1081 660 C 1080.91 652.54 1077.45 633.45 1075.68 616 C 1073.9 598.55 1066.1 574.2 1066 563 C 1079.04 572.05 1096.43 589.11 1107.17 601 C 1115.13 609.82 1132.62 627.24 1137.1 637 C 1143.04 649.95 1142.17 669.81 1142 684 C 1141.92 690.61 1139.8 696.74 1137.88 703 C 1133.3 717.96 1124.24 733.96 1113.26 745.12 C 1107.14 751.33 1101.71 754.09 1095 759.23 C 1095 759.23 844 955.74 844 955.74 C 844 955.74 823 970.63 823 970.63 C 823 970.63 806 980.28 806 980.28 C 793.05 987.55 782.29 995.2 768 1000 C 768 1000 794.73 973.68 794.73 973.68 C 794.73 973.68 991.72 777.57 991.72 777.57 Z M 266 646 C 272.83 650.89 280.52 660.71 286.66 667.27 C 340.29 735.99 506.7 966.91 506.7 966.91 C 510.91 972.13 513.14 971.6 514 979 C 519.31 980.89 523.07 991.08 529.91 990.01 C 533.53 989.45 538.59 980.21 540.19 977 L 544.92 964 L 558 932 L 560 932 L 572.82 954.01 L 582.24 973 C 585.07 978.79 589.63 990.62 588.79 997 C 587.17 1009.22 575.56 1023.54 564 1027.61 C 559.99 1029.03 546.62 1029.99 542 1030 C 536.08 1030.01 524.56 1029.67 519 1028.48 C 507.67 1026.06 481.32 1012.85 473.02 1004.91 C 467.02 999.18 468.53 998.59 465.13 993.44 C 458.38 983.2 358.06 801.37 358.06 801.37 L 331.9 757.09 C 331.9 757.09 268.51 655.81 266 646 Z M 172 817 C 186.82 825.19 191.54 830.58 191.54 830.58 C 191.54 830.58 260.5 886.25 260.5 886.25 C 261.34 887.55 343.28 951.66 343.28 951.66 C 343.28 951.66 392 991 456.83 1024.05 C 478.66 1034.35 518 1051.5 611.5 1051.5 C 705 1051.5 755 1030 784.86 1016.99 C 814.71 1003.99 954.91 896.54 954.91 896.54 C 954.91 896.54 1023 845.38 1023 845.38 C 1023 845.38 1039 832 1039 832 C 1036.7 849.04 1025.43 869.64 1017.51 885 C 1009.82 899.91 993.68 928.73 984.38 942 C 984.38 942 955.83 978 955.83 978 C 955.83 978 939.18 994.91 939.18 994.91 C 939.18 994.91 905 1030.83 905 1030.83 C 905 1030.83 892 1041.43 892 1041.43 C 856.84 1070.69 829.16 1088.59 787 1106.57 C 787 1106.57 736 1123.67 736 1123.67 C 736 1123.67 709 1129.63 709 1129.63 C 699.24 1131.62 677.05 1133.89 667 1134 C 667 1134 652 1135 652 1135 C 652 1135 589 1135 589 1135 C 589 1135 501.49 1129.83 493 1127.09 C 493 1127.09 429.65 1105.93 413 1098.11 C 384.85 1084.89 358.85 1067.12 335 1047.25 C 335 1047.25 298.01 1014.96 298.01 1014.96 C 298.01 1014.96 270.56 984.37 270.56 984.37 C 270.56 984.37 251.06 961.44 251.06 961.44 C 251.06 961.44 229.24 934 229.24 934 C 229.24 934 211.53 908 211.53 908 C 211.53 908 201.91 891 201.91 891 C 193.31 875.88 186.41 861.31 180.32 845 C 178.11 839.09 174.28 831.28 175 825 C 171.5 822.38 172.05 821.16 172 817 Z M 509 1150 C 515.58 1151.03 533.67 1161 597.67 1162 C 661.67 1163 693 1154 693 1154 C 688.38 1164.21 677.25 1172.57 669.04 1180.33 C 662.11 1186.88 647.77 1202 640 1205.59 C 630.54 1209.95 573.74 1210.52 558 1204.16 C 552.3 1201.86 530.45 1179.29 530.45 1179.29 C 530.45 1179.29 511.66 1155.68 509 1150 Z" style="fill: rgb(5, 6, 0);"/>
</svg>